<svg xmlns="http://www.w3.org/2000/svg" fill="none" viewBox="0 0 115 116">
    <path fill-rule="evenodd"
        d="M58.9056 115.686H55.964c-.0408-.006-.0818-.012-.1226-.018-.0818-.013-.1635-.025-.2453-.029-.3648-.023-.7297-.042-1.0947-.062h-.0005c-.7076-.038-1.4151-.077-2.1217-.133-2.2893-.18-4.5552-.529-6.8029-.999-4.5735-.958-8.967-2.445-13.1636-4.495-9.438-4.61-17.0719-11.2933-22.90817-20.0255-2.39114-3.5783-4.33092-7.3913-5.85717-11.4143-.02951-.0784-.05576-.1585-.08541-.2489l-.00007-.0003c-.01622-.0495-.03345-.102-.0528-.1592H49.4011c.993 0 1.9862.0024 2.9795.0047h.0005c1.5731.0038 3.1464.0075 4.7191.0019.7814-.0026 1.5641-.0379 2.3429-.1044 1.851-.1565 3.6382-.6014 5.3627-1.2888 7.7774-3.1021 13.4206-11.1273 12.454-20.598-.2557-2.5098-.9575-4.8827-2.1224-7.1186-3.0773-5.9028-9.4002-10.7555-17.8246-10.7594-5.0143-.0026-10.0288-.0017-15.0435-.0009-2.5075.0005-5.0151.0009-7.5229.0009H3.55996c-.00212-.0227-.00488-.0399-.00707-.0535-.0032-.02-.00517-.0322-.00206-.043l.00576-.0178c.03332-.1025.06696-.206.10642-.3071 3.54822-9.271 9.08579-17.1501 16.67789-23.5382C30.2133 5.9713 41.6302 1.49559 54.5095.763767c2.1054-.120013 4.2122-.095228 6.3189.028699 2.2516.131753 4.4875.388734 6.7064.782694 3.53.62616 6.9765 1.56148 10.3212 2.85292 10.9864 4.2383 19.8922 11.16642 26.673 20.78702 5.57 7.9027 8.874 16.6923 10.014 26.2921.216 1.8132.347 3.6343.342 5.4619 0 .217.015.4333.029.65v.001c.004.0478.007.0957.01.1434.003.0466.006.093.008.1396v.5635c-.004.0444-.009.0886-.013.1327-.011.1002-.022.2-.023.3004-.007 2.0885-.136 4.1679-.389 6.2407-.283 2.3207-.695 4.6166-1.261 6.8838-2.347 9.3924-6.767 17.6876-13.288 24.8362-7.4448 8.1596-16.5058 13.7346-27.1439 16.7306-3.0668.863-6.1885 1.451-9.3584 1.765-.952.094-1.9082.148-2.8642.202h-.0014c-.449.026-.8981.051-1.3466.081-.0783.005-.156.017-.2335.029-.0348.006-.0697.011-.1044.016v.002ZM1.03838 47.0275c.26872-1.414.59354-2.7681.96923-4.1313H44.6006c-.0199.0225-.0373.0433-.0538.0629-.0332.0398-.0618.074-.0949.1028-1.2928 1.1192-2.4342 2.3729-3.4048 3.7804-.0939.1357-.1943.2074-.36.1852-.0408-.0052-.083-.0035-.125-.0016-.021.0007-.042.0016-.0629.0016H1.03838Zm.96401 26.4147H44.5132c.0122-.0168.024-.0341.0358-.0513.0084-.0121.0169-.0242.0255-.0361-.0179-.01-.0365-.0191-.0552-.028-.0374-.0179-.0749-.0359-.1053-.062-1.2914-1.1193-2.4289-2.3768-3.3943-3.7883-.1174-.1708-.2556-.1787-.4265-.1787-13.071.0013-26.142.0013-39.21305.0013h-.34569c.26351 1.4193.59224 2.7812.96793 4.1431ZM38.5751 51.6924c-.4526 1.3619-.7696 2.7264-.9301 4.1444H0c.0560931-1.3906.15393-2.759.316991-4.1157.246549-.0652 37.585009-.0939 38.259409-.0287h-.0013ZM.3196 64.646h38.2477c-.4566-1.3567-.7566-2.7238-.9288-4.1157-.0243-.0041-.045-.0082-.0631-.0118h-.0004c-.0383-.0076-.0657-.0129-.093-.0129H.186542c-.03287 0-.066604.0069-.0997976.0136l-.0005063.0002c-.0074724.0014-.014917.003-.022318.0044-.0091315.0026-.0182629.0105-.0247854.017-.0045188.0044-.008168.0094-.0154665.0193-.005342.0073-.0126484.0172-.0236682.0316.0639201 1.3344.148712 2.6924.3196 4.0543Zm57.1132-8.6162c-1.2366 0-2.2254-.9914-2.2254-2.2293 0-1.2367.9901-2.2268 2.2281-2.2268 1.2366 0 2.2267.9914 2.2267 2.2281 0 1.2366-.9927 2.228-2.228 2.228h-.0014Zm-2.2254 6.5303c-.0052 1.2419.9758 2.2346 2.2124 2.2398l-.0013.0013c1.2432.004 2.2372-.9757 2.2424-2.2111.0052-1.2392-.981-2.2398-2.2124-2.245-1.2367-.0052-2.2359.9823-2.2411 2.215Z"
        clip-rule="evenodd" />
    <style>
        path {
            fill: #8FDAAF;
        }
    </style>
</svg>